<svg xmlns:dc="http://purl.org/dc/elements/1.1/" xmlns:cc="http://creativecommons.org/ns#" xmlns:rdf="http://www.w3.org/1999/02/22-rdf-syntax-ns#" xmlns:svg="http://www.w3.org/2000/svg" xmlns="http://www.w3.org/2000/svg" xmlns:sodipodi="http://sodipodi.sourceforge.net/DTD/sodipodi-0.dtd" xmlns:inkscape="http://www.inkscape.org/namespaces/inkscape" version="1.1" x="0px" y="0px" viewBox="0 0 100 125"><g transform="translate(0,-952.36218)"><path style="font-size:medium;font-style:normal;font-variant:normal;font-weight:normal;font-stretch:normal;text-indent:0;text-align:start;text-decoration:none;line-height:normal;letter-spacing:normal;word-spacing:normal;text-transform:none;direction:ltr;block-progression:tb;writing-mode:lr-tb;text-anchor:start;baseline-shift:baseline;opacity:1;color:#000000;fill:rgb(34, 79, 56);fill-opacity:1;stroke:none;stroke-width:6;marker:none;visibility:visible;display:inline;overflow:visible;enable-background:accumulate;font-family:Sans;-inkscape-font-specification:Sans" d="M 50 5 C 25.182717 5 5 25.18269 5 50 C 5 74.8172 25.182712 95 50 95 C 74.817288 95 95 74.8172 95 50 C 95 25.18269 74.817283 5 50 5 z M 50 11 C 71.574643 11 89 28.42533 89 50 C 89 71.5746 71.574638 89 50 89 C 28.425362 89 11 71.5746 11 50 C 11 28.42533 28.425357 11 50 11 z M 28.65625 25.96875 A 3.0003 3.0003 0 0 0 26.875 31.09375 L 45.75 50 L 26.875 68.875 A 3.0003 3.0003 0 1 0 31.125 73.09375 L 50 54.21875 L 68.875 73.09375 A 3.0003 3.0003 0 1 0 73.125 68.875 L 54.25 50 L 73.125 31.09375 A 3.0003 3.0003 0 0 0 70.65625 25.96875 A 3.0003 3.0003 0 0 0 68.875 26.875 L 50 45.75 L 31.125 26.875 A 3.0003 3.0003 0 0 0 28.65625 25.96875 z " fill="rgb(34, 79, 56)" transform="translate(0,952.36218)"/></g></svg>
