<svg id="Layer_1" data-name="Layer 1" xmlns="http://www.w3.org/2000/svg" viewBox="0 0 569.83 569.83"><defs><style>.cls-1,.cls-2{fill:rgb(34, 79, 56);}.cls-2{stroke:rgb(34, 79, 56);stroke-miterlimit:10;stroke-width:0.33px;}</style></defs><title>insta-ico</title><path class="cls-2" d="M236.2,152.95H368.4A82.63,82.63,0,0,1,451,235.57v132.2A82.63,82.63,0,0,1,368.4,450.4H236.2a82.63,82.63,0,0,1-82.63-82.63V235.57A82.63,82.63,0,0,1,236.2,152.95Zm0,16.53a65.78,65.78,0,0,0-66.1,66.1v132.2a65.78,65.78,0,0,0,66.1,66.1H368.4a65.78,65.78,0,0,0,66.1-66.1V235.57a65.78,65.78,0,0,0-66.1-66.1Zm148.73,24.79a16.53,16.53,0,1,1-16.53,16.53A16.53,16.53,0,0,1,384.93,194.26ZM302.3,231.44a70.23,70.23,0,1,1-70.23,70.23A70.36,70.36,0,0,1,302.3,231.44Zm0,16.53A53.71,53.71,0,1,0,356,301.67,53.58,53.58,0,0,0,302.3,248Z" transform="translate(-17.39 -16.76)"/></svg>
