<svg id="Layer_1" data-name="Layer 1" xmlns="http://www.w3.org/2000/svg" viewBox="0 0 558.01 558.01"><defs><style>.cls-1{fill:none;stroke:rgb(34, 79, 56);stroke-miterlimit:10;stroke-width:2.17px;}.cls-2{fill:rgb(34, 79, 56);}</style></defs><title>twitter-ico</title><path class="cls-2" d="M170.91,183.52c6.48,8.1,13,16.2,34,32.39,11.53,8.87,34.95,20.6,56.68,26.72,19,5.34,21.05,4.86,38.06,6.48-1.62-11.34-8.1-42.92,26.72-67.21,12.89-9,29.15-11.34,42.92-9.72,8,.95,25.1,5.67,37.25,18.62,2.43.81,23.48-4,40.49-14.58-2.43,8.1-9.72,25.1-27.53,34,.81,1.62,21.05-1.62,34.82-8.91-3.24,9.72-17.81,21.86-17.81,21.86l-12.15,10.53A197.42,197.42,0,0,1,417.89,288c-7.46,28.57-25,61.9-51,85.83-41.3,38.06-90.21,48.53-119.84,47-15.39-.81-23.73-2.06-28.34-2.43-23.48-1.62-62.35-18.62-68.83-25.91,2.43-.81,25.45,2.33,49.4-4,21.4-5.7,40.62-19.19,42.92-21.86-13-.81-22.12-1.81-38.06-13.77-9.72-7.29-19.43-23.48-20.24-30,5.67.81,20.24,1.62,27.53-.81-1.62-1.62-19.78-6-34-20.24-9.72-9.72-16.2-25.91-15.39-42.92,14.58,8.91,27.53,8.1,27.53,8.1a51.42,51.42,0,0,1-18.62-19.43C162.82,232.91,155.89,208.84,170.91,183.52Z" transform="translate(-23.09 -17.31)"/></svg>
